<svg xmlns="http://www.w3.org/2000/svg" viewBox="0 0 64 64">
  <!-- Rockers -->
  <path d="M5 57 Q18 67 32 64 Q46 61 59 53" stroke="#5C3317" stroke-width="4.5" fill="none" stroke-linecap="round"/>

  <!-- Back legs -->
  <line x1="17" y1="43" x2="11" y2="59" stroke="#6B3A2A" stroke-width="3.5" stroke-linecap="round"/>
  <!-- Front legs -->
  <line x1="47" y1="43" x2="53" y2="57" stroke="#6B3A2A" stroke-width="3.5" stroke-linecap="round"/>

  <!-- Arm supports -->
  <rect x="10" y="33" width="4" height="9" rx="1.5" fill="#7A4928"/>
  <rect x="50" y="33" width="4" height="9" rx="1.5" fill="#7A4928"/>

  <!-- Seat -->
  <rect x="11" y="38" width="42" height="7" rx="2.5" fill="#A0522D"/>

  <!-- Back slats -->
  <rect x="18" y="8" width="4.5" height="32" rx="1.8" fill="#A0522D"/>
  <rect x="27" y="8" width="4.5" height="32" rx="1.8" fill="#A0522D"/>
  <rect x="36" y="8" width="4.5" height="32" rx="1.8" fill="#A0522D"/>

  <!-- Top rail -->
  <rect x="13" y="5" width="34" height="7" rx="3" fill="#7A4928"/>

  <!-- Mid rail -->
  <rect x="13" y="28" width="34" height="5.5" rx="2.2" fill="#7A4928"/>

  <!-- Armrests -->
  <rect x="4" y="30" width="18" height="5" rx="2.5" fill="#8B4513"/>
  <rect x="42" y="30" width="18" height="5" rx="2.5" fill="#8B4513"/>
</svg>
